# xmcd
#
# Track frame offsets: 
#        150
#        15579
#        32199
#        46467
#        62094
#        79748
#        94067
#        108688
#        125290
#        141129
#        155285
#        172165
#        188775
#        201774
#        215482
#        232046
#        247190
#        261157
#
# Disc length: 3638 seconds
#
# Revision: 0
# Processed by: cddbd v1.5.2PL0 Copyright (c) Steve Scherf et al.
# Submitted via: ExactAudioCopyFreeDBPlugin 1.0
#
DISCID=060e3412
DTITLE=Various Artist - New Country - Country Hits 2016
DYEAR=2015
DGENRE=New Country
TTITLE0=Zac Brown Band - Homegrown
TTITLE1=Keith Urban - John Cougar, John Deere, John 3:16
TTITLE2=Sam Hunt - House Party
TTITLE3=Dean Brody - Bring Down The House
TTITLE4=Tim McGraw - Shotgun Rider
TTITLE5=Billy Currington - Don't It
TTITLE6=Florida Georgia Line - Sippin’ On Fire
TTITLE7=A Thousand Horses - Smoke
TTITLE8=High Valley - Ricky Skaggs - Make You Mine
TTITLE9=Wes Mack - Before You Drive Me Crazy
TTITLE10=Thomas Rhett - Make Me Wanna
TTITLE11=Brantley Gilbert - One Hell Of An Amen
TTITLE12=Jess Moskaluke - Kiss Me Quiet
TTITLE13=Madeline Merlo - Honey Jack
TTITLE14=Maddie and Tae - Girl in a Country Song
TTITLE15=Kip Moore - Wild Ones
TTITLE16=Tim Hicks - So do I
TTITLE17=Yoan - Baby what you want me to do
EXTD=
EXTT0=
EXTT1=
EXTT2=
EXTT3=
EXTT4=
EXTT5=
EXTT6=
EXTT7=
EXTT8=
EXTT9=
EXTT10=
EXTT11=
EXTT12=
EXTT13=
EXTT14=
EXTT15=
EXTT16=
EXTT17=
PLAYORDER=
